<?xml version="1.0" standalone="no"?><!DOCTYPE svg PUBLIC "-//W3C//DTD SVG 1.1//EN" "http://www.w3.org/Graphics/SVG/1.1/DTD/svg11.dtd"><svg t="1571711752578" class="icon" viewBox="0 0 1024 1024" version="1.1" xmlns="http://www.w3.org/2000/svg" p-id="11746" xmlns:xlink="http://www.w3.org/1999/xlink" width="64" height="64"><defs><style type="text/css"></style></defs><path d="M808.8 723.4 808.8 437l69.6-164.4 42.6 0 0 405.8c33-63.4 51.6-135.4 51.6-211.8C972.8 212 766.4 5.8 512 5.8 257.6 5.8 51.2 212 51.2 466.6c0 12.8 0.6 25.4 1.6 37.8l188.2-233.6 112.6 0L188.2 517.2l53 0 0-55.6 113.2-179.6 0 235.2 0 114 0 94-113.2 0 0-94L81.8 631.2C134.8 769.6 252.6 876 398 913c-10.4 26-40.4 89.2-90.4 100.4-62 13.8 168.4 3.4 332.4-104.2 105-30.4 194.6-97 254.2-185.6L808.8 723.6zM407.6 661.4c-5.4-12.8-8.2-26.4-8.2-41L399.4 375.8c0-14.6 2.8-28.2 8.2-41 5.4-12.8 13-23.8 22.4-33.4 9.4-9.4 20.6-16.8 33.4-22.4 12.8-5.4 26.4-8.2 41-8.2l93 0c14.6 0 28.2 2.8 41 8.2 12.2 5.2 23 12.4 32.2 21.4L570 447l0-24.8c0-5.4-1.8-10-5.4-13.6-3.6-3.6-8.2-5.4-13.6-5.4-5.4 0-10 1.8-13.6 5.4-3.6 3.6-5.4 8.2-5.4 13.6l0 80.6-117.4 171.4C411.8 670.2 409.6 666 407.6 661.4zM702.4 620.4c0 14.6-2.8 28.2-8.2 41-5.4 12.8-13 23.8-22.4 33.4-9.4 9.4-20.6 16.8-33.4 22.4-12.8 5.4-26.4 8.2-41 8.2l-93 0c-14.6 0-28.2-2.8-41-8.2-12.8-5.4-23.8-13-33.4-22.4-4.4-4.4-8.4-9.2-12-14.4l113.8-165.8 0 59.4c0 5.4 1.8 10 5.4 13.6 3.6 3.6 8.2 5.4 13.6 5.4 5.4 0 10-1.8 13.6-5.4 3.6-3.6 5.4-8.2 5.4-13.6l0-115.2 105.2-153.4c7.8 8.6 14.2 18.4 19 29.6 5.4 12.8 8.2 26.4 8.2 41L702.2 620.4zM775.4 498l-35.4-14.4L829.4 278l2.6-5.4 39 0-78.8 186 0.2 0L775.4 498z" p-id="11747"></path></svg>