<?xml version="1.0" standalone="no"?><!DOCTYPE svg PUBLIC "-//W3C//DTD SVG 1.1//EN" "http://www.w3.org/Graphics/SVG/1.1/DTD/svg11.dtd"><svg t="1653545822254" class="icon" viewBox="0 0 1024 1024" version="1.1" xmlns="http://www.w3.org/2000/svg" p-id="2922" xmlns:xlink="http://www.w3.org/1999/xlink" width="200" height="200"><defs><style type="text/css"></style></defs><path d="M421.3 557.5c-67.7 0-131.3-27.3-179.1-77-47.6-49.4-73.8-115.1-73.8-184.9s26.2-135.5 73.8-184.9c47.8-49.6 111.4-77 179.1-77 67.7 0 131.3 27.3 179.1 77 47.6 49.4 73.8 115.1 73.8 184.9S648 431 600.4 480.5c-47.8 49.6-111.4 77-179.1 77z m0-483.8c-117.4 0-212.9 99.5-212.9 221.9 0 122.3 95.5 221.9 212.9 221.9S634.2 418 634.2 295.6 538.7 73.7 421.3 73.7zM760.3 980.8H82.4c-22.3 0-40.5-18.2-40.5-40.5V808.2c0-65.8 25.6-127.6 72.1-174.1S222.3 562 288.1 562h266.5c13.2 0 26.4 1.1 39.4 3.1 10.9 1.8 18.3 12 16.6 22.9-1.8 10.9-12 18.3-22.9 16.6-10.8-1.7-21.9-2.6-33-2.6H288.1c-113.7 0-206.2 92.5-206.2 206.2v132.1c0 0.3 0.2 0.5 0.5 0.5h677.8c0.1 0 0.3 0 0.4-0.2 6.7-8.8 19.3-10.5 28-3.7 8.8 6.7 10.5 19.3 3.7 28-7.6 10.1-19.3 15.9-32 15.9z" fill="#1C1C1C" p-id="2923"></path><path d="M811.5 884.7c-17.8 0-35.5-2.7-52.7-8-45.2-14.1-82.2-44.9-104.2-86.8s-26.4-89.9-12.3-135c10.6-34.2 31.1-64 59-86.2 23.7-18.8 51.5-31.1 81.1-36l66.5-213.6c1.4-4.5 4.4-8.4 8.4-10.9l57.2-36.4c4.8-3 10.6-3.9 16-2.4s10 5.2 12.6 10.2l49.1 96.6c4.3 8.4 2.1 18.7-5.2 24.6L954.4 427l13.4 28.5c4 8.5 1.6 18.6-5.8 24.3l-36.2 28.1-16.2 52c64.8 43 94.6 124.6 71.1 200.2-11.5 36.8-34 68.2-65.1 90.8-30.2 21.8-67.1 33.8-104.1 33.8zM884.9 338l-68.1 218.9c-2.4 7.7-9.3 13.3-17.3 14-55.7 4.9-102.4 42.6-119 95.9-10.9 35-7.5 72.1 9.5 104.6 17 32.4 45.7 56.3 80.7 67.2 13.3 4.1 27 6.2 40.8 6.2 60.4 0 113-38.8 130.9-96.5 19.5-62.7-8.3-130.7-66.1-161.6-8.5-4.5-12.5-14.4-9.7-23.6l22.7-73c1.2-3.9 3.6-7.3 6.8-9.9l28.6-22.2-13.3-28.2c-3.9-8.3-1.6-18.2 5.5-24l32-25.9-31.8-62.5-32.2 20.6z" fill="#1C1C1C" p-id="2924"></path><path d="M804.2 771c-6.7 0-13.4-1-19.8-3-35.1-10.9-54.8-48.4-43.9-83.6 8.7-28.1 34.3-46.9 63.7-46.9 6.7 0 13.4 1 19.8 3 35.1 10.9 54.8 48.4 43.9 83.6-8.7 28-34.4 46.9-63.7 46.9z m-0.1-93.6c-11.8 0-22 7.6-25.5 18.8-4.4 14.1 3.5 29.1 17.6 33.5 2.6 0.8 5.3 1.2 8 1.2 11.8 0 22-7.6 25.5-18.8 4.4-14.1-3.5-29.1-17.6-33.5-2.6-0.8-5.3-1.2-8-1.2z" fill="#1C1C1C" p-id="2925"></path></svg>