<?xml version="1.0" standalone="no"?><!DOCTYPE svg PUBLIC "-//W3C//DTD SVG 1.1//EN" "http://www.w3.org/Graphics/SVG/1.1/DTD/svg11.dtd"><svg t="1571711775854" class="icon" viewBox="0 0 1024 1024" version="1.1" xmlns="http://www.w3.org/2000/svg" p-id="12125" xmlns:xlink="http://www.w3.org/1999/xlink" width="64" height="64"><defs><style type="text/css"></style></defs><path d="M263.826286 455.826286h397.677714v-56.758857H263.826286v56.758857z m0 340.845714h397.677714v-56.758857H263.826286v56.832z m0-170.422857h511.268571v-56.758857h-511.268571v56.832z m681.764571-386.340572v-11.337142h-11.264L718.262857 12.653714V1.316571h-11.264L706.706286 1.024l-0.365715 0.292571H150.235429C87.405714 1.316571 36.571429 52.224 36.571429 114.980571v795.355429C36.571429 973.165714 87.405714 1024 150.235429 1024h681.691428c62.829714 0 113.664-50.834286 113.664-113.664V244.150857l2.121143-2.121143-2.121143-2.121143zM718.336 92.891429l135.606857 135.606857H718.336V92.964571z m170.422857 817.371428a56.832 56.832 0 0 1-56.758857 56.832H150.235429a56.832 56.832 0 0 1-56.832-56.832V114.980571c0-31.378286 25.453714-56.832 56.832-56.832h511.268571v227.254858h227.254857v624.932571z" p-id="12126"></path></svg>