<?xml version="1.0" standalone="no"?><!DOCTYPE svg PUBLIC "-//W3C//DTD SVG 1.1//EN" "http://www.w3.org/Graphics/SVG/1.1/DTD/svg11.dtd"><svg t="1652412549399" class="icon" viewBox="0 0 1024 1024" version="1.1" xmlns="http://www.w3.org/2000/svg" p-id="4083" xmlns:xlink="http://www.w3.org/1999/xlink" width="200" height="200"><defs><style type="text/css"></style></defs><path d="M704 656.290909V293.236364H64v484.072727h640v-121.018182zM768 377.949091l159.092364-90.205091c19.781818-11.170909 44.404364-11.496727 64.418909-0.791273 20.061091 10.752 32.488727 30.859636 32.488727 52.596364v391.447273c0 21.736727-12.427636 41.844364-32.488727 52.596363-20.014545 10.705455-44.683636 10.426182-64.418909-0.791272L768 692.596364v84.712727c0 16.058182-6.749091 31.418182-18.757818 42.821818-12.008727 11.310545-28.253091 17.687273-45.242182 17.687273H64C28.625455 837.818182 0 810.728727 0 777.309091V293.236364C0 259.816727 28.672 232.727273 64 232.727273h640c35.374545 0 64 27.089455 64 60.509091v84.712727z m0 70.562909v173.521455l192 108.916363V339.595636L768 448.512z" p-id="4084"></path><path d="M443.392 372.363636l1.722182 1.768728c89.181091 88.529455 89.181091 233.751273 0 324.049454l-12.241455-12.381091-12.194909-12.427636 7.074909-7.726546a198.609455 198.609455 0 0 0-7.074909-266.705454L418.909091 397.172364l12.241454-12.427637L443.392 372.363636zM363.008 418.909091l2.141091 1.908364c71.68 64.837818 71.68 167.889455 0 230.818909l-15.173818-13.358546-15.220364-13.358545 6.283636-5.585455c50.082909-48.081455 48.034909-122.274909-6.283636-171.799273l-2.141091-1.908363 15.173818-13.358546L363.054545 418.909091z m-73.821091 68.654545l2.141091 1.908364c30.440727 26.717091 30.440727 70.609455 0 97.28L232.727273 537.227636l56.459636-49.617454z" p-id="4085"></path></svg>