<?xml version="1.0" standalone="no"?><!DOCTYPE svg PUBLIC "-//W3C//DTD SVG 1.1//EN" "http://www.w3.org/Graphics/SVG/1.1/DTD/svg11.dtd"><svg t="1572232993345" class="icon" viewBox="0 0 1024 1024" version="1.1" xmlns="http://www.w3.org/2000/svg" p-id="5360" xmlns:xlink="http://www.w3.org/1999/xlink" width="64" height="64"><defs><style type="text/css"></style></defs><path d="M512.034 228.181c-64.717 0-116.975 52.43-116.975 116.873 0 64.614 52.258 116.94 116.975 116.94 64.58 0 116.873-52.326 116.873-116.94 0-64.444-52.293-116.873-116.873-116.873zM512 430.661c-47.309 0-85.47-38.4-85.47-85.607 0-47.104 38.161-85.47 85.47-85.47 47.138 0 85.402 38.366 85.402 85.47 0 47.24-38.264 85.606-85.402 85.606zM572.416 769.946c-16.35 20.855-32.563 30.037-47.855 33.928-4.3 1.024-8.465 1.673-12.561 2.082-4.062-0.41-8.294-0.99-12.561-2.082-15.292-3.891-31.54-13.073-47.89-33.928 0 0-84.41 74.683-11.331 160.085l35.464-33.246 35.601 55.467v2.014l0.068 0.068 0.649-0.99 0.58 0.99 0.069-0.068v-2.014l35.669-55.467 35.396 33.246c73.114-85.436-11.298-160.085-11.298-160.085z m6.178 124.586l-32.153-36.113L512 907.196l-34.44-48.777-32.188 36.113c-29.73-61.44 8.806-88.337 8.806-88.337 15.394 18.671 20.89 18.535 42.564 22.665 2.117 0.682 8.636 0.785 14.575 1.194v0.103c0.205 0 0.478-0.034 0.717-0.068 0.205 0.034 0.444 0.068 0.683 0.068v-0.103c5.973-0.41 12.458-0.546 14.575-1.194 21.64-4.13 27.136-3.994 42.598-22.665-0.034 0 38.434 26.863 8.704 88.337z" p-id="5361"></path><path d="M707.686 496.094C817.084 241.732 548.966 89.19 512 69.666 475.034 89.19 206.985 241.732 316.314 496.094c0 0-163.328 124.655 16.247 327.782l102.878-135.1 49.903 49.835L512 743.8l26.692-5.188 49.903-49.834 102.878 135.1c179.576-203.094 16.213-327.783 16.213-327.783z m-17.203 276.104L591.02 639.59l-64.342 64.342L512 707.447l-14.677-3.515-64.342-64.342-99.43 132.608c-131.618-150.118 21.436-267.195 21.436-267.195C254.6 250.983 475.102 140.834 512 119.535c36.898 21.3 257.434 131.447 157.013 385.468 0 0.034 153.088 117.077 21.47 267.195z" p-id="5362"></path></svg>