<?xml version="1.0" standalone="no"?><!DOCTYPE svg PUBLIC "-//W3C//DTD SVG 1.1//EN" "http://www.w3.org/Graphics/SVG/1.1/DTD/svg11.dtd"><svg t="1571900903597" class="icon" viewBox="0 0 1024 1024" version="1.1" xmlns="http://www.w3.org/2000/svg" p-id="2994" xmlns:xlink="http://www.w3.org/1999/xlink" width="64" height="64"><defs><style type="text/css"></style></defs><path d="M896 537.6h-307.2c-28.29824 0-51.2 22.92224-51.2 51.2v307.2c0 28.29824 22.92736 51.2 51.2 51.2h307.2c28.29824 0 51.2-22.92224 51.2-51.2v-307.2c0-28.29824-22.92224-51.2-51.2-51.2z m-0.84992 329.29792a31.02208 31.02208 0 0 1-31.02208 31.01696H619.008a31.02208 31.02208 0 0 1-31.02208-31.01696v-245.12a31.0272 31.0272 0 0 1 31.02208-31.02208h245.12a31.0272 31.0272 0 0 1 31.02208 31.02208v245.12zM435.2 537.6H128c-28.30336 0-51.2 22.92736-51.2 51.2v307.2c0 28.29824 22.92736 51.2 51.2 51.2h307.2c28.30336 0 51.2-22.92224 51.2-51.2v-307.2c0-28.29824-22.92224-51.2-51.2-51.2z m-1.70496 329.29792a31.01696 31.01696 0 0 1-31.01696 31.01696H157.35296a31.01696 31.01696 0 0 1-31.01696-31.01696v-245.12a31.02208 31.02208 0 0 1 31.01696-31.02208h245.12a31.02208 31.02208 0 0 1 31.01696 31.02208v245.12zM128 486.4h307.2c28.30336 0 51.2-22.92736 51.2-51.2V128c0-28.30336-22.92736-51.2-51.2-51.2H128c-28.30336 0-51.2 22.92736-51.2 51.2v307.2c0 28.29824 22.92736 51.2 51.2 51.2z m-1.664-327.12704a31.01696 31.01696 0 0 1 31.01696-31.01696h245.12a31.01696 31.01696 0 0 1 31.01696 31.01696v245.12a31.01696 31.01696 0 0 1-31.01696 31.01696H157.35296a31.01696 31.01696 0 0 1-31.01696-31.01696V159.27296zM1009.36192 301.9776L855.76704 35.93728a51.18976 51.18976 0 0 0-69.94432-18.7392v0.00512L519.7824 170.79296c-24.50944 14.15168-32.87552 45.45536-18.7392 69.94432l153.59488 266.0352a51.18976 51.18976 0 0 0 69.94432 18.74432l266.04032-153.6c24.50944-14.14656 32.87552-45.45024 18.7392-69.9392z m-78.70464 38.05184l-201.94304 117.92896a29.5936 29.5936 0 0 1-40.4736-10.63424L570.3168 245.38624a29.59872 29.59872 0 0 1 10.63424-40.4736l201.93792-117.92896a29.5936 29.5936 0 0 1 40.4736 10.63424l117.9136 201.93792a29.57824 29.57824 0 0 1-10.61888 40.4736z" p-id="2995"></path></svg>