<?xml version="1.0" standalone="no"?><!DOCTYPE svg PUBLIC "-//W3C//DTD SVG 1.1//EN" "http://www.w3.org/Graphics/SVG/1.1/DTD/svg11.dtd"><svg t="1571711737017" class="icon" viewBox="0 0 1024 1024" version="1.1" xmlns="http://www.w3.org/2000/svg" p-id="11620" xmlns:xlink="http://www.w3.org/1999/xlink" width="64" height="64"><defs><style type="text/css"></style></defs><path d="M390.023194 984.60739H142.444682a39.935321 39.935321 0 0 1-40.508751-39.382371V78.771909a39.935321 39.935321 0 0 1 40.508751-39.382371h688.525896a39.935321 39.935321 0 0 1 40.508751 39.382371v118.638623a20.254376 20.254376 0 0 0 40.508751 0V78.771909A80.014 80.014 0 0 0 830.970578 0.007168H142.444682A80.014 80.014 0 0 0 61.447659 78.771909v866.45311A80.014 80.014 0 0 0 142.444682 1023.98976h247.578512a19.701425 19.701425 0 1 0 0-39.38237zM780.283439 217.091477a20.0291 20.0291 0 0 0-20.254375-19.701425h-546.806705a19.701425 19.701425 0 1 0 0 39.382371h546.806705a20.0291 20.0291 0 0 0 20.254375-19.680946z m150.668799 83.004029a100.493652 100.493652 0 0 0-135.780092 31.8049L491.520348 843.523068a191.484745 191.484745 0 0 0-21.565073 87.530032c-0.716788 41.655612 12.042035 71.883578 35.83939 85.27727A61.725671 61.725671 0 0 0 536.575582 1023.98976a128.305019 128.305019 0 0 0 62.97493-19.98814A199.103175 199.103175 0 0 0 666.846648 942.071153l303.754196-511.704581a94.902707 94.902707 0 0 0-39.587167-130.271066z m4.464564 110.59012l-13.168416 22.158984a19.455669 19.455669 0 0 1 7.393154 26.889783 20.623009 20.623009 0 0 1-27.64753 7.188357l-270.331404 455.385539a163.427622 163.427622 0 0 1-52.96038 47.860946c-22.527617 13.086498-42.741033 17.817297-52.857981 12.103474s-15.89221-25.026135-15.544056-50.441382a155.256241 155.256241 0 0 1 16.199405-68.524915l270.331404-455.385539a19.455669 19.455669 0 0 1-7.393154-26.869303 20.623009 20.623009 0 0 1 27.64753-7.188358l13.168416-22.158983a55.090263 55.090263 0 0 1 48.2091-26.070597 66.108316 66.108316 0 0 1 32.194013 8.458096 56.093766 56.093766 0 0 1 24.821338 76.593898z m-118.372388-36.863373a20.623009 20.623009 0 0 0-27.64753 7.188358 19.455669 19.455669 0 0 0 7.393155 26.889783l105.26541 59.042836a20.623009 20.623009 0 0 0 27.64753-7.188358 19.455669 19.455669 0 0 0-7.393154-26.869303z m-138.012374 40.262996a20.0291 20.0291 0 0 0-20.254375-19.701426H213.324757a19.701425 19.701425 0 1 0 0 39.382371H658.839104a20.0291 20.0291 0 0 0 20.254375-19.742384z m-465.768721 178.172971a19.701425 19.701425 0 1 0 0 39.38237h263.327363a19.701425 19.701425 0 1 0 0-39.38237H213.324757z" p-id="11621"></path></svg>