<?xml version="1.0" standalone="no"?><!DOCTYPE svg PUBLIC "-//W3C//DTD SVG 1.1//EN" "http://www.w3.org/Graphics/SVG/1.1/DTD/svg11.dtd"><svg t="1682415708515" class="icon" viewBox="0 0 1024 1024" version="1.1" xmlns="http://www.w3.org/2000/svg" p-id="2749" xmlns:xlink="http://www.w3.org/1999/xlink" width="64" height="64"><path d="M857.8048 310.784L670.72 132.5056a28.16 28.16 0 0 0-19.4048-7.7312H262.6048A105.2672 105.2672 0 0 0 157.44 229.888v598.3232a89.7024 89.7024 0 0 0 89.6 89.6h529.92a89.7024 89.7024 0 0 0 89.6-89.6V331.1616a28.1088 28.1088 0 0 0-8.7552-20.3776z m-178.5344-92.16L768 303.0016h-65.3824a23.3984 23.3984 0 0 1-23.3472-23.3472z m130.9696 609.5872a33.3312 33.3312 0 0 1-33.28 33.28H247.04a33.3312 33.3312 0 0 1-33.28-33.28V229.888a48.8448 48.8448 0 0 1 48.8448-48.7936h360.3456v98.56a79.7696 79.7696 0 0 0 79.6672 79.6672h107.52z" p-id="2750" fill="#8a8a8a"></path><path d="M300.288 369.1008H348.16v3.0208a46.08 46.08 0 0 0 46.08 46.08h57.088a46.08 46.08 0 0 0 46.08-46.08v-3.1744h76.1344a25.6 25.6 0 0 0 0-51.2H497.3056v-2.816a46.08 46.08 0 0 0-46.08-46.08H394.24a46.08 46.08 0 0 0-46.08 46.08v2.9696h-47.616a25.6 25.6 0 0 0 0 51.2zM399.36 319.8976h47.2064v47.2064H399.36zM722.2784 675.84h-224.768v-3.0208a46.08 46.08 0 0 0-46.08-46.08H393.9328a46.08 46.08 0 0 0-46.08 46.08v3.0208h-47.616a25.6 25.6 0 0 0 0 51.2H348.16v3.1744a46.08 46.08 0 0 0 46.08 46.08h57.2416a46.08 46.08 0 0 0 46.08-46.08V727.04h224.7168a25.6 25.6 0 0 0 0-51.2z m-275.968 49.2032H399.36v-47.1552h47.2064zM674.6624 492.4928a46.08 46.08 0 0 0-46.08-46.08h-57.4976a46.08 46.08 0 0 0-46.08 46.08v3.0208h-224.768a25.6 25.6 0 0 0 0 51.2h224.7168v3.3792a46.08 46.08 0 0 0 46.08 46.08h57.5488a46.08 46.08 0 0 0 46.08-46.08v-3.1744h47.616a25.6 25.6 0 0 0 0-51.2h-47.616z m-51.2 52.3776h-47.2064v-47.1552h47.2064z" p-id="2751" fill="#8a8a8a"></path></svg>