<?xml version="1.0" standalone="no"?><!DOCTYPE svg PUBLIC "-//W3C//DTD SVG 1.1//EN" "http://www.w3.org/Graphics/SVG/1.1/DTD/svg11.dtd"><svg t="1592185396605" class="icon" viewBox="0 0 1049 1024" version="1.1" xmlns="http://www.w3.org/2000/svg" p-id="2611" xmlns:xlink="http://www.w3.org/1999/xlink" width="131.125" height="128"><defs><style type="text/css"></style></defs><path d="M517.143 64.418L146.349 277.47c-5.567 4.535-12.7 12.448-12.303 17.574l-0.914 435.933c0 3.206 3.973 11.39 7.066 14.04l382.07 220.748c4.176 2.169 11.171 3.355 20.716 0.006L920.41 750.486c7.592-8.364 11.727-22.337 11.727-38.37l-0.646-410.172c0-9.898-9.28-23-15.185-26.346L541.401 63.63c-4.374-2.76-18.293-3.944-24.258 0.788z m-0.043 98.354c6.96-3.352 17.711-3.236 22.284-1.067L790.33 305.149c-88.215 52.644-203.277 122.42-247.383 150.587-3.976 4.633-12.77 14.704-12.872 25.808-0.234 25.345-1 88.23-1 88.23l314.91-189.15-1.945 85.13c0.199 7.985-5.112 19.36-10.381 22.318L550.504 655.056c-5.965 4.436-20.2 24.764-20.4 35.607 0.1 8.97 0.28 84.5 0.28 84.5L843.19 584.872l-0.244 98.139c-0.099 7.886-5.91 16.617-9.787 19.279L538.24 870.814c-5.269 2.366-12.591 2.292-16.966-0.074L222.587 698.418c-3.48-2.366-6.035-8.226-6-12.339l-0.833-340.362c0.994-4.534 6.24-10.09 11.211-15.019z" p-id="2612"></path></svg>