<?xml version="1.0" standalone="no"?><!DOCTYPE svg PUBLIC "-//W3C//DTD SVG 1.1//EN" "http://www.w3.org/Graphics/SVG/1.1/DTD/svg11.dtd"><svg t="1571711800733" class="icon" viewBox="0 0 1024 1024" version="1.1" xmlns="http://www.w3.org/2000/svg" p-id="12377" xmlns:xlink="http://www.w3.org/1999/xlink" width="64" height="64"><defs><style type="text/css"></style></defs><path d="M148.155501 477.061819h193.966297c16.625331 0 30.125477-13.500146 30.125477-30.125478V188.533061c0-16.656051-13.500146-30.09271-30.125477-30.09271H148.155501c-16.594612 0-30.094758 13.438707-30.094758 30.09271v259.029956c0.313338 16.37548 13.688558 29.498802 30.094758 29.498802z m32.531829-258.372561h131.313086v198.748281H180.68733v-198.748281z m296.966349 8.998732h169.888442c16.563893 0 30.064039-13.500146 30.064039-30.123429 0-16.625331-13.500146-30.09271-30.064039-30.125478h-169.888442c-16.656051 0.032767-30.09271 13.500146-30.09271 30.125478 0 16.656051 13.500146 30.12343 30.09271 30.123429z m0 129.500642h169.888442c16.563893 0 30.064039-13.500146 30.064039-30.123429 0-16.625331-13.500146-30.09271-30.064039-30.125478h-169.888442c-16.656051 0.032767-30.09271 13.500146-30.09271 30.125478 0 16.654003 13.500146 30.12343 30.09271 30.123429z m-11.468571 189.155641H148.155501c-16.594612 0-30.094758 13.500146-30.094758 30.09271 0 16.68677 13.500146 30.125477 30.094758 30.125478h318.029607a30.080422 30.080422 0 0 0 30.12343-30.125478c0.002048-16.656051-13.498098-30.09271-30.12343-30.09271z m0 129.498594H148.155501c-16.594612 0-30.094758 13.500146-30.094758 30.158245 0 16.561845 13.500146 30.061991 30.094758 30.12343h318.029607c16.656051-0.061439 30.12343-13.561585 30.12343-30.186917 0.002048-16.594612-13.498098-30.094758-30.12343-30.094758z m0 129.498594H148.155501c-16.594612 0-30.094758 13.500146-30.094758 30.09271 0 16.68677 13.500146 30.125477 30.094758 30.125478h318.029607a30.080422 30.080422 0 0 0 30.12343-30.125478c0.002048-16.592564-13.498098-30.09271-30.12343-30.09271z" p-id="12378"></path><path d="M1023.97952 725.843787c-1.624032-127.563273-100.999196-232.467927-228.310569-240.969004V30.127525c0-16.656051-13.500146-30.125477-30.12343-30.125477H30.09271C13.438707 0.002048 0 13.471475 0 30.127525v963.74495c0 16.68677 13.438707 30.125477 30.09271 30.125477h735.450763c16.623284 0 30.12343-13.438707 30.12343-30.125477v-25.310726c127.938049-8.503126 227.624504-114.437903 228.312617-242.717962zM60.187468 60.220236h675.230528v425.903802c-132.310442 13.688558-228.482598 132.093358-214.812472 264.436567 11.310878 108.717954 94.249123 196.219052 202.186804 213.217111H60.187468V60.220236z m717.981673 849.933721c-101.437459-0.999404-182.874551-84.029807-181.875147-185.497986 0.999404-101.500946 84.062575-182.874551 185.561473-181.936585 100.436007 0.999404 181.559761 82.624908 181.875146 183.124401-0.313338 102.154245-83.437947 184.654227-185.561472 184.31017z" p-id="12379"></path><path d="M863.106194 640.873967c-11.687702-11.747093-30.752153-11.874067-42.562733-0.155645 0 0.063487-0.124926 0.126973-0.124925 0.155645l-42.812584 42.783912-42.749097-42.783912c-11.814676-11.747093-31.002004-11.747093-42.751145 0-11.812628 11.843347-11.812628 31.002004 0 42.783912l42.751145 42.779816-42.751145 42.781865c-11.812628 11.781908-11.812628 30.936469 0 42.781864 11.749141 11.781908 30.936469 11.781908 42.751145 0l42.749097-42.781864 42.812584 42.781864c11.747093 11.781908 30.872983 11.781908 42.687658 0 11.874067-11.843347 11.874067-30.999956 0-42.781864l-42.687658-42.781865 42.687658-42.779816c11.874067-11.72047 11.935505-30.782872 0.186364-42.532014-0.061439-0.126973-0.122878-0.126973-0.186364-0.251898z" p-id="12380"></path></svg>