<?xml version="1.0" standalone="no"?><!DOCTYPE svg PUBLIC "-//W3C//DTD SVG 1.1//EN" "http://www.w3.org/Graphics/SVG/1.1/DTD/svg11.dtd"><svg t="1571473365659" class="icon" viewBox="0 0 1024 1024" version="1.1" xmlns="http://www.w3.org/2000/svg" p-id="1777" xmlns:xlink="http://www.w3.org/1999/xlink" width="128" height="128"><defs><style type="text/css"></style></defs><path d="M679.071403 944.030319H44.908116c-22.417933 0-40.666048-17.959118-40.666049-40.046769V95.286538c0-22.108293 18.248115-40.088054 40.666049-40.088054h634.183929c22.438576 0 40.707334 17.979761 40.707334 40.088054v808.697012c-0.020643 22.087651-18.2894 40.046769-40.727976 40.046769z m0-41.285328v20.642664-20.642664z m-0.577995-807.458453l-633.585292 1.197274 0.61928 807.499738 632.966012-1.238559V95.286538z" fill="#4E91C2" p-id="1778"></path><path d="M743.662299 862.14087c0 10.734185-8.958916 19.44539-20.023384 19.44539H89.475628c-11.064468 0-20.023384-8.731847-20.023384-19.44539V53.443858c0-10.713543 8.958916-19.404104 20.023384-19.404105h634.183929c11.064468 0 20.023384 8.711204 20.023385 19.404105v808.697012z" fill="#FFFFFF" p-id="1779"></path><path d="M723.659557 902.228924H89.475628c-22.417933 0-40.666048-17.979761-40.666049-40.088054V53.443858c0-22.087651 18.248115-40.046769 40.666049-40.046769h634.183929c22.417933 0 40.666048 17.959118 40.666049 40.046769v808.697012c-0.020643 22.108293-18.248115 40.088054-40.666049 40.088054z m0-41.285328v20.642664-20.642664z m-0.639922-807.499738l-633.544007 1.217917 0.61928 807.458452 632.924727-1.197274V53.443858z" fill="#4E91C2" p-id="1780"></path><path d="M621.499012 219.906302H186.042011a20.642664 20.642664 0 1 1 0-41.285329h435.477644a20.642664 20.642664 0 1 1-0.020643 41.285329zM621.499012 351.214289H186.042011a20.642664 20.642664 0 1 1 0-41.285329h435.477644a20.642664 20.642664 0 1 1-0.020643 41.285329zM621.499012 482.212636H186.042011a20.642664 20.642664 0 1 1 0-41.285329h435.477644a20.642664 20.642664 0 1 1-0.020643 41.285329zM621.499012 613.561908H186.042011a20.642664 20.642664 0 1 1 0-41.285329h435.477644a20.642664 20.642664 0 1 1-0.020643 41.285329zM621.499012 749.287425H186.042011a20.642664 20.642664 0 1 1 0-41.285328h435.477644a20.642664 20.642664 0 1 1-0.020643 41.285328z" fill="#4E91C2" p-id="1781"></path><path d="M732.246906 743.755191m-259.56086 0a259.56086 259.56086 0 1 0 519.121719 0 259.56086 259.56086 0 1 0-519.121719 0Z" fill="#FFFFFF" p-id="1782"></path><path d="M732.226263 1024c-154.489699 0-280.182881-125.713825-280.182881-280.244809 0-154.489699 125.693182-280.182881 280.182881-280.182881 154.510341 0 280.224166 125.693182 280.224166 280.182881 0 154.551627-125.713825 280.244809-280.224166 280.244809z m0-519.142362c-131.741483 0-238.897553 107.15607-238.897553 238.897553 0 131.762126 107.15607 238.959481 238.897553 238.959481 131.762126 0 238.938838-107.197355 238.938838-238.959481 0-131.741483-107.176712-238.897553-238.938838-238.897553z" fill="#4E91C2" p-id="1783"></path><path d="M632.150627 854.461799l223.064629-223.105915" fill="#EC887C" p-id="1784"></path><path d="M632.150627 875.104463a20.622022 20.622022 0 0 1-14.594364-35.237028l223.06463-223.105914a20.622022 20.622022 0 1 1 29.188727 29.188727L646.744991 869.056163a20.580736 20.580736 0 0 1-14.594364 6.0483z" fill="#E28378" p-id="1785"></path><path d="M853.006491 852.253034L630.00379 629.167762" fill="#EC887C" p-id="1786"></path><path d="M853.006491 872.895698a20.580736 20.580736 0 0 1-14.594363-6.048301L615.409426 643.762126a20.622022 20.622022 0 1 1 29.188727-29.188728L867.621497 837.679313a20.622022 20.622022 0 0 1-14.615006 35.216385z" fill="#E28378" p-id="1787"></path></svg>