<?xml version="1.0" standalone="no"?><!DOCTYPE svg PUBLIC "-//W3C//DTD SVG 1.1//EN" "http://www.w3.org/Graphics/SVG/1.1/DTD/svg11.dtd"><svg t="1571711730039" class="icon" viewBox="0 0 1024 1024" version="1.1" xmlns="http://www.w3.org/2000/svg" p-id="11494" xmlns:xlink="http://www.w3.org/1999/xlink" width="64" height="64"><defs><style type="text/css"></style></defs><path d="M362.667 895.915V639.85c0-36.267 33.109-63.851 72.533-63.851h153.6c39.253 0 72.533 27.648 72.533 63.85v256.065h59.904c61.27 0 110.763-47.958 110.763-106.731V414.165L557.163 139.328a63.808 63.808 0 0 0-90.326 0L192 414.165v375.019c0 58.88 49.387 106.73 110.763 106.73h59.904z m42.666 0h213.334V639.85c0-10.71-12.587-21.184-29.867-21.184H435.2c-17.408 0-29.867 10.389-29.867 21.184v256.064z m469.334-439.083v332.352c0 82.645-68.886 149.397-153.43 149.397H302.763c-84.63 0-153.43-66.645-153.43-149.397V456.832l-27.584 27.584a21.333 21.333 0 1 1-30.165-30.165l345.088-345.088a106.475 106.475 0 0 1 150.656 0L932.416 454.25a21.333 21.333 0 0 1-30.165 30.165l-27.584-27.584z" p-id="11495"></path></svg>