<?xml version="1.0" standalone="no"?><!DOCTYPE svg PUBLIC "-//W3C//DTD SVG 1.1//EN" "http://www.w3.org/Graphics/SVG/1.1/DTD/svg11.dtd"><svg t="1571818945702" class="icon" viewBox="0 0 1024 1024" version="1.1" xmlns="http://www.w3.org/2000/svg" p-id="3109" xmlns:xlink="http://www.w3.org/1999/xlink" width="64" height="64"><defs><style type="text/css"></style></defs><path d="M512 355.328c-19.456 0-35.328-15.872-35.328-35.328 0-9.728 3.584-18.432 10.24-25.088 6.656-6.656 15.36-10.24 25.088-10.24 9.728 0 18.432 3.584 25.088 10.24 6.656 6.656 10.24 15.872 10.24 25.088 0 19.456-15.872 35.328-35.328 35.328zM148.992 931.328c-31.232 0-56.832-25.6-56.832-56.832v-384c0-31.232 25.6-56.832 56.832-56.832h99.84v28.16H149.504c-15.872 0-28.16 12.288-28.672 27.648v320l212.48-212.48c2.56-2.56 6.144-4.096 9.728-4.096s7.168 1.536 9.728 4.096c2.56 3.072 4.096 6.144 4.096 9.728s-1.536 7.168-4.096 9.728l-227.84 227.84-1.536 1.536-3.072 2.048v25.6c0 15.36 12.8 28.16 28.672 28.16H563.2l-175.616-175.616-4.608-4.608c-2.56-2.56-4.096-6.144-4.608-9.728s1.024-7.168 3.584-10.24c2.56-3.072 6.144-4.608 10.24-4.608 3.584 0 7.168 1.536 9.728 3.584l116.736 116.224 356.352-356.352h-99.84v-28.16h99.328c31.232 0 56.832 25.6 56.832 56.832v384.512c0 31.232-25.6 56.832-56.832 56.832H148.992z m741.376-444.416l-1.536 1.536-350.208 350.208 59.392 59.392 2.048 2.048 2.048 3.072h272.896c15.872 0 28.672-12.8 28.672-28.16V470.016l-13.312 16.896z" p-id="3110"></path><path d="M369.664 469.504l-3.584-3.584c-80.384-80.384-80.384-210.944 0-291.328 38.912-38.912 90.624-60.416 145.92-60.416s107.008 21.504 145.92 60.416c80.384 80.384 80.384 210.944 0 291.328L512 611.328 369.664 469.504zM512 142.336c-47.616 0-92.16 18.432-125.952 52.224-69.12 69.12-69.12 182.272 0 251.392l125.952 125.952 125.952-125.952c33.792-33.792 52.224-78.336 52.224-125.952s-18.432-92.16-52.224-125.952c-33.792-33.28-78.336-51.712-125.952-51.712z" p-id="3111"></path></svg>