<?xml version="1.0" standalone="no"?><!DOCTYPE svg PUBLIC "-//W3C//DTD SVG 1.1//EN" "http://www.w3.org/Graphics/SVG/1.1/DTD/svg11.dtd"><svg t="1571901121604" class="icon" viewBox="0 0 1024 1024" version="1.1" xmlns="http://www.w3.org/2000/svg" p-id="6368" xmlns:xlink="http://www.w3.org/1999/xlink" width="64" height="64"><defs><style type="text/css"></style></defs><path d="M704 673.792c-6.656 0-12.8-2.56-17.408-7.168l-81.92-81.92 35.328-35.328 39.424 39.424V350.208h50.176V588.8l39.424-39.424 35.328 35.328-81.92 81.92c-5.632 4.608-11.776 7.168-18.432 7.168zM535.552 367.616v304.64c0 1.024-1.024 2.048-2.048 2.048H479.232c-1.024 0-2.048-1.024-2.048-2.048v-146.432c0-2.048-2.56-2.56-3.584-1.024l-57.344 124.416c-0.512 0.512-1.024 1.024-1.536 1.024H352.256c-1.024 0-1.536-0.512-1.536-1.024l-57.344-124.928c-1.024-2.048-3.584-1.024-3.584 1.024v146.944c0 1.024-1.024 2.048-2.048 2.048H232.448c-1.024 0-2.048-1.024-2.048-2.048V367.616c0-1.024 1.024-2.048 2.048-2.048h55.296c1.024 0 1.536 0.512 1.536 1.024l91.648 209.92c0.512 1.536 2.56 1.536 3.584 0l91.648-209.92c0.512-0.512 1.024-1.024 1.536-1.024H532.48c2.048 0 3.072 1.024 3.072 2.048z" p-id="6369"></path><path d="M928.256 129.536c23.04 0 41.472 18.944 41.472 41.472v681.472c0 23.04-18.944 41.472-41.472 41.472H95.744c-23.04 0-41.472-18.944-41.472-41.472v-680.96c0-23.04 18.944-41.472 41.472-41.472h832.512v-0.512zM137.216 811.008h749.568V212.992H137.216v598.016z" p-id="6370"></path></svg>