<?xml version="1.0" standalone="no"?><!DOCTYPE svg PUBLIC "-//W3C//DTD SVG 1.1//EN" "http://www.w3.org/Graphics/SVG/1.1/DTD/svg11.dtd"><svg t="1574219422208" class="icon" viewBox="0 0 1024 1024" version="1.1" xmlns="http://www.w3.org/2000/svg" p-id="3263" xmlns:xlink="http://www.w3.org/1999/xlink" width="128" height="128"><defs><style type="text/css"></style></defs><path d="M512 1024c-14.197742 0-28.185565-3.783675-40.463309-10.936306l-383.97392-224.33252a80.614299 80.614299 0 0 1-39.807951-69.365673V304.17498c0-28.415964 15.242221-54.993851 39.787471-69.350314l383.92272-224.306919c23.99741-14.023662 57.082809-14.018542 81.064858 0l383.90224 224.291559a80.604059 80.604059 0 0 1 39.807951 69.365674v415.190521a80.588699 80.588699 0 0 1-39.84379 69.386153l-383.866401 224.28132A80.588699 80.588699 0 0 1 512 1024z m0-1001.552668c-10.511347 0-20.577254 2.636797-29.102044 7.61855l-383.92272 224.30692a57.922488 57.922488 0 0 0-28.574684 49.802178v415.190521c0 20.423654 10.951666 39.510991 28.590044 49.817538l383.95856 224.322279c17.638378 10.270707 40.478669 10.280947 58.173368-0.03584l383.86128-224.276199a57.861048 57.861048 0 0 0 28.615644-49.827778V304.17498c0-20.423654-10.951666-39.516111-28.590044-49.812418L541.102044 30.065882c-8.524789-4.981754-18.590697-7.61855-29.102044-7.61855z" p-id="3264"></path><path d="M346.542287 302.526342h91.350926c18.897896 0 34.181077 15.191021 34.181077 34.053077V438.323932c0 18.815976-15.308781 34.053077-34.181077 34.053078H346.542287c-18.897896 0-34.181077-15.191021-34.181077-34.053078V336.574299c0.00512-18.810856 15.308781-34.047957 34.181077-34.047957zM289.551638 438.318812c0 31.359961 25.487328 56.698809 56.995769 56.698809h91.350926c31.487961 0 56.995769-25.390048 56.995768-56.698809V336.574299c0-31.359961-25.487328-56.698809-56.995768-56.698809H346.542287c-31.487961 0-56.995769 25.390048-56.995769 56.698809v101.744513zM586.106787 302.526342h91.350926c18.897896 0 34.181077 15.191021 34.181077 34.053077V438.323932c0 18.815976-15.308781 34.053077-34.181077 34.053078h-91.350926c-18.897896 0-34.181077-15.191021-34.181077-34.053078V336.574299c0-18.810856 15.308781-34.047957 34.181077-34.047957z m-56.995768 135.79247c0 31.359961 25.487328 56.698809 56.995768 56.698809h91.350926c31.487961 0 56.995769-25.390048 56.995769-56.698809V336.574299c0-31.359961-25.487328-56.698809-56.995769-56.698809h-91.350926c-31.487961 0-56.995769 25.390048-56.995768 56.698809v101.744513zM346.542287 551.62939h91.350926c18.897896 0 34.181077 15.191021 34.181077 34.053078v101.744513c0 18.815976-15.308781 34.053077-34.181077 34.053077H346.542287c-18.897896 0-34.181077-15.191021-34.181077-34.053077v-101.744513c0.00512-18.815976 15.308781-34.053077 34.181077-34.053078z m-56.990649 135.797591c0 31.359961 25.487328 56.698809 56.995769 56.698809h91.350926c31.487961 0 56.995769-25.390048 56.995768-56.698809v-101.744513c0-31.359961-25.487328-56.698809-56.995768-56.698809H346.542287c-31.487961 0-56.995769 25.390048-56.995769 56.698809v101.744513zM676.428594 721.474938h-90.352527c-18.882536 0-34.150357-15.185901-34.150357-34.053077V585.677348c0-18.815976 15.308781-34.053077 34.181077-34.053078h91.350926c18.903016 0 34.181077 15.175661 34.181077 34.006998v101.846913c0 6.251512 5.109754 11.325426 11.407346 11.325425s11.407346-5.068794 11.407346-11.325425v-101.846913c0-31.334361-25.492448-56.652729-56.995769-56.652729h-91.350926c-31.487961 0-56.995769 25.390048-56.995768 56.698809v101.744513c0 31.359961 25.471968 56.698809 56.965048 56.698809h91.115407c6.563832 0 11.668465-5.068794 11.668465-11.325426a11.366386 11.366386 0 0 0-11.407346-11.325426h-1.023999z" p-id="3265"></path></svg>