<?xml version="1.0" standalone="no"?><!DOCTYPE svg PUBLIC "-//W3C//DTD SVG 1.1//EN" "http://www.w3.org/Graphics/SVG/1.1/DTD/svg11.dtd"><svg t="1571909204711" class="icon" viewBox="0 0 1024 1024" version="1.1" xmlns="http://www.w3.org/2000/svg" p-id="4275" xmlns:xlink="http://www.w3.org/1999/xlink" width="64" height="64"><defs><style type="text/css"></style></defs><path d="M903.110894 1023.999716H120.889106A120.604377 120.604377 0 0 1 0.000284 903.110894V120.889106A120.604377 120.604377 0 0 1 120.889106 0.000284h782.221788A120.604377 120.604377 0 0 1 1023.999716 120.889106v782.221788A120.604377 120.604377 0 0 1 903.110894 1023.999716zM120.889106 60.586917a60.302189 60.302189 0 0 0-60.302189 60.302189v782.221788a60.302189 60.302189 0 0 0 60.302189 60.302189h782.221788a60.302189 60.302189 0 0 0 60.302189-60.302189V120.889106a60.302189 60.302189 0 0 0-60.302189-60.302189z" p-id="4276"></path><path d="M572.302189 180.906851h300.65761a28.444429 28.444429 0 0 1 30.151095 30.151094 28.444429 28.444429 0 0 1-30.151095 30.151094H572.302189a28.444429 28.444429 0 0 1-30.151095-30.151094 28.444429 28.444429 0 0 1 30.151095-30.151094z m0 150.471027h300.65761a30.151094 30.151094 0 0 1 0 60.302189H572.302189a30.151094 30.151094 0 1 1 0-60.302189z m0 150.471028h300.65761a30.151094 30.151094 0 0 1 0 60.302188H572.302189a30.151094 30.151094 0 0 1 0-60.302188zM151.040201 632.319933h721.919598a30.151094 30.151094 0 0 1 0 60.302189H151.040201a30.151094 30.151094 0 0 1 0-60.302189z m0 150.471028h721.919598a30.151094 30.151094 0 0 1 0 60.302188H151.040201a30.151094 30.151094 0 1 1 0-60.302188z m63.146631-339.910923h162.417688l38.968867 99.271056h56.888857l-149.902139-361.244243H268.231247l-147.342141 361.244243h56.888857z m75.093292-189.724339a208.213218 208.213218 0 0 0 5.97333-23.89332 87.60884 87.60884 0 0 1 6.257774 23.89332l60.017744 150.471028H229.262379z" p-id="4277"></path></svg>