<?xml version="1.0" standalone="no"?><!DOCTYPE svg PUBLIC "-//W3C//DTD SVG 1.1//EN" "http://www.w3.org/Graphics/SVG/1.1/DTD/svg11.dtd"><svg t="1571901083968" class="icon" viewBox="0 0 1024 1024" version="1.1" xmlns="http://www.w3.org/2000/svg" p-id="6239" xmlns:xlink="http://www.w3.org/1999/xlink" width="64" height="64"><defs><style type="text/css"></style></defs><path d="M614.4 375.466667c-20.48 0-34.133333-13.653333-34.133333-34.133334V307.2H307.2v34.133333c0 20.48-13.653333 34.133333-34.133333 34.133334s-34.133333-13.653333-34.133334-34.133334V273.066667c0-20.48 13.653333-34.133333 34.133334-34.133334h341.333333c20.48 0 34.133333 13.653333 34.133333 34.133334v68.266666c0 17.066667-17.066667 34.133333-34.133333 34.133334z" p-id="6240"></path><path d="M443.733333 580.266667c-20.48 0-34.133333-13.653333-34.133333-34.133334V307.2c0-20.48 13.653333-34.133333 34.133333-34.133333s34.133333 13.653333 34.133334 34.133333v238.933333c0 20.48-17.066667 34.133333-34.133334 34.133334zM768 785.066667h-512c-10.24 0-17.066667-6.826667-17.066667-17.066667s6.826667-17.066667 17.066667-17.066667h512c10.24 0 17.066667 6.826667 17.066667 17.066667s-6.826667 17.066667-17.066667 17.066667zM768 682.666667h-512c-10.24 0-17.066667-6.826667-17.066667-17.066667s6.826667-17.066667 17.066667-17.066667h512c10.24 0 17.066667 6.826667 17.066667 17.066667s-6.826667 17.066667-17.066667 17.066667zM768 580.266667h-170.666667c-10.24 0-17.066667-6.826667-17.066666-17.066667s6.826667-17.066667 17.066666-17.066667h170.666667c10.24 0 17.066667 6.826667 17.066667 17.066667s-6.826667 17.066667-17.066667 17.066667z" p-id="6241"></path><path d="M887.466667 921.6h-136.533334c-20.48 0-34.133333-13.653333-34.133333-34.133333s13.653333-34.133333 34.133333-34.133334h102.4V170.666667H170.666667v682.666666h307.2c20.48 0 34.133333 13.653333 34.133333 34.133334s-13.653333 34.133333-34.133333 34.133333H136.533333c-20.48 0-34.133333-13.653333-34.133333-34.133333V136.533333c0-20.48 13.653333-34.133333 34.133333-34.133333h750.933334c20.48 0 34.133333 13.653333 34.133333 34.133333v750.933334c0 20.48-13.653333 34.133333-34.133333 34.133333z" p-id="6242"></path><path d="M614.4 887.466667m-34.133333 0a34.133333 34.133333 0 1 0 68.266666 0 34.133333 34.133333 0 1 0-68.266666 0Z" p-id="6243"></path></svg>