<?xml version="1.0" standalone="no"?><!DOCTYPE svg PUBLIC "-//W3C//DTD SVG 1.1//EN" "http://www.w3.org/Graphics/SVG/1.1/DTD/svg11.dtd"><svg t="1612680004935" class="icon" viewBox="0 0 1024 1024" version="1.1" xmlns="http://www.w3.org/2000/svg" p-id="2116" xmlns:xlink="http://www.w3.org/1999/xlink" width="64" height="64"><defs><style type="text/css"></style></defs><path d="M923.181827 717.894324c-18.84316-18.841114-44.751227-32.976042-73.016991-37.682228v-105.994056c0-49.463552-40.044018-89.508593-89.506546-89.508593H543.963992V352.813464c25.910113-7.067976 49.463552-18.847254 65.947992-37.688367 25.910113-25.910113 42.400692-63.594387 42.400692-101.281731 0-37.684274-14.134929-77.727269-42.400692-105.993033-25.90909-25.90909-63.59234-42.395576-101.280708-42.395575-37.684274 0-73.01699 14.130835-101.281731 42.395575-25.910113 25.910113-42.395576 63.59848-42.395576 101.281731 0 37.688367 14.129812 73.015967 42.395576 101.281731 18.84623 18.847254 42.400692 30.620391 65.954131 37.688368v131.902122H275.453562c-49.462528 0-89.508593 40.039925-89.508593 89.502453v108.349707c-30.620391 4.711302-58.886155 18.841114-80.083943 40.037879-28.265764 28.265764-42.395576 63.59848-42.395576 101.281731 0 37.689391 14.129812 73.015967 40.039925 98.92608 25.90909 25.90909 61.241806 40.044018 98.925057 40.044018 37.689391 0 73.02313-14.134929 98.931197-40.044018 25.90909-25.910113 40.039925-61.23669 40.039925-98.92608 0-37.684274-14.130835-73.015967-40.039925-98.92608-14.134929-14.129812-32.978089-25.90909-51.819203-32.976043V574.21804c0-11.779278 9.417487-23.552415 23.554462-23.552415h202.562439v131.902122c-23.553439 7.061836-47.106878 18.841114-63.59848 37.682228-25.910113 25.910113-40.039925 61.241806-40.039925 98.92608 0 37.689391 14.129812 73.015967 40.039925 98.92608 25.90909 25.90909 61.241806 40.044018 98.92608 40.044018 37.688367 0 73.015967-14.134929 98.925057-40.044018 25.910113-25.910113 40.045041-61.23669 40.045041-98.92608 0-37.684274-14.134929-73.015967-40.045041-98.92608-18.841114-18.841114-42.394552-30.620391-68.304666-37.682228V553.021276h216.693274c11.779278 0 23.558555 9.417487 23.558555 23.552415v108.343567c-23.558555 7.067976-42.400692 18.84623-61.241806 35.331693-25.90909 25.910113-40.039925 61.241806-40.039924 98.92608 0 37.689391 14.130835 73.015967 40.039924 98.92608 25.910113 25.90909 61.241806 40.044018 98.926081 40.044019 37.687344 0 73.015967-14.134929 98.92608-40.044019 25.90909-25.910113 40.044018-61.23669 40.044018-98.92608 4.706185-37.682227-9.422603-73.014944-35.331693-101.280707zM277.809213 821.531706c0 42.395576-32.978089 75.371618-75.378781 75.371618-42.394552 0-75.371618-32.976042-75.371618-75.371618s32.978089-75.371618 75.371618-75.371619c42.400692 0 75.378781 30.620391 75.378781 75.371619zM435.615309 209.132064c0-42.395576 32.978089-75.371618 75.372641-75.371618 42.399669 0 75.371618 32.976042 75.371618 75.371618 0 42.399669-32.971949 75.371618-75.371618 75.371619-42.395576 2.355651-75.372641-30.616298-75.372641-75.371619z m153.09991 612.399642c0 42.395576-32.978089 75.371618-75.371618 75.371618-42.395576 0-75.372641-32.976042-75.372641-75.371618s32.978089-75.371618 75.372641-75.371619c42.394552 0 75.371618 30.620391 75.371618 75.371619z m233.184877 73.015967c-42.395576 0-75.371618-32.976042-75.371618-75.371618s32.976042-75.371618 75.371618-75.371618 75.371618 32.976042 75.371618 75.371618-32.976042 75.371618-75.371618 75.371618z m0 0" p-id="2117"></path></svg>