<?xml version="1.0" standalone="no"?><!DOCTYPE svg PUBLIC "-//W3C//DTD SVG 1.1//EN" "http://www.w3.org/Graphics/SVG/1.1/DTD/svg11.dtd"><svg t="1571472856855" class="icon" viewBox="0 0 1024 1024" version="1.1" xmlns="http://www.w3.org/2000/svg" p-id="784" width="128" height="128" xmlns:xlink="http://www.w3.org/1999/xlink"><defs><style type="text/css"></style></defs><path d="M514 912c-219.9 0-398.8-178.9-398.8-398.8S294.1 114.4 514 114.4s398.8 178.9 398.8 398.8S733.9 912 514 912z m0-701.5c-166.9 0-302.7 135.8-302.7 302.7 0 166.9 135.8 302.7 302.7 302.7s302.7-135.8 302.7-302.7c0-166.9-135.8-302.7-302.7-302.7z" fill="#BDD2EF" p-id="785"></path><path d="M514 763.7m-90.6 0a90.6 90.6 0 1 0 181.2 0 90.6 90.6 0 1 0-181.2 0Z" fill="#2867CE" p-id="786"></path><path d="M514 623.3c60.4 0 108.9-282.3 108.9-342.4 0-60.1-48.7-108.8-108.9-108.9-60.1 0-108.9 48.7-108.9 108.9S453.6 623.3 514 623.3z" fill="#2867CE" p-id="787"></path></svg>