<?xml version="1.0" standalone="no"?><!DOCTYPE svg PUBLIC "-//W3C//DTD SVG 1.1//EN" "http://www.w3.org/Graphics/SVG/1.1/DTD/svg11.dtd"><svg t="1571711817583" class="icon" viewBox="0 0 1031 1024" version="1.1" xmlns="http://www.w3.org/2000/svg" p-id="13158" xmlns:xlink="http://www.w3.org/1999/xlink" width="64.4375" height="64"><defs><style type="text/css"></style></defs><path d="M518.4 678.4c-19.2 0-32-12.8-32-32V384c0-19.2 12.8-32 32-32s32 12.8 32 32v262.4c0 12.8-12.8 32-32 32zM473.6 774.4a0.7 0.7 0 1 0 89.6 0 0.7 0.7 0 1 0-89.6 0z" p-id="13159"></path><path d="M992 960H32c-12.8 0-19.2-6.4-25.6-19.2-6.4-12.8-6.4-19.2 0-32l480-832c12.8-19.2 44.8-19.2 57.6 0l480 825.6c6.4 6.4 6.4 12.8 6.4 19.2-6.4 25.6-19.2 38.4-38.4 38.4zM89.6 896h851.2L512 160 89.6 896z" p-id="13160"></path></svg>