<?xml version="1.0" standalone="no"?><!DOCTYPE svg PUBLIC "-//W3C//DTD SVG 1.1//EN" "http://www.w3.org/Graphics/SVG/1.1/DTD/svg11.dtd"><svg t="1571711760228" class="icon" viewBox="0 0 1024 1024" version="1.1" xmlns="http://www.w3.org/2000/svg" p-id="11872" xmlns:xlink="http://www.w3.org/1999/xlink" width="64" height="64"><defs><style type="text/css"></style></defs><path d="M160.068737 192.062488H96.181215c-34.993165 0-64.087483 28.594415-64.087483 63.887522v704.162468c0 35.293107 28.694396 63.887522 64.087483 63.887522h639.675063c34.993165 0 64.087483-28.594415 64.087483-63.887522V895.925015H224.156219c-35.493068 0-64.087483-28.594415-64.087482-63.887522V192.062488z m0 0" p-id="11873"></path><path d="M927.918766 0H288.043741c-35.293107 0-63.987502 28.694396-63.987502 63.987502V767.95001c0 35.393087 28.694396 63.987502 63.987502 63.987502h639.875025c35.393087 0 63.987502-28.594415 63.987502-63.987502V64.087483c0-35.393087-28.594415-64.087483-63.987502-64.087483zM351.031439 224.056239h511.90002c17.696544 0 31.993751 14.297208 31.993751 31.993751s-14.297208 31.993751-31.993751 31.993751H351.031439c-17.696544 0-31.993751-14.297208-31.993751-31.993751s14.297208-31.993751 31.993751-31.993751z m192.962312 447.912517H352.031244c-17.696544 0-31.993751-14.297208-31.993751-31.993751s14.297208-31.993751 31.993751-31.993751h191.962507c17.696544 0 31.993751 14.297208 31.993751 31.993751s-14.297208 31.993751-31.993751 31.993751z m127.975005-191.962507H352.031244c-17.696544 0-31.993751-14.297208-31.993751-31.993751s14.297208-31.993751 31.993751-31.993752h319.937512c17.696544 0 31.993751 14.297208 31.993751 31.993752s-14.297208 31.993751-31.993751 31.993751z m159.968756 223.956258c-52.98965 0-95.981254-42.991603-95.981253-95.981253s42.991603-95.981254 95.981253-95.981254 95.981254 42.991603 95.981254 95.981254-42.991603 95.981254-95.981254 95.981253z" p-id="11874"></path></svg>