{
  "accessors": [
    {
      "bufferView": 2,
      "componentType": 5126,
      "count": 2127,
      "max": [
        0.5862851738929749,
        0.5646740198135376,
        0.7527617812156677
      ],
      "min": [
        -0.5862851738929749,
        -0.5349882245063782,
        -0.4272688925266266
      ],
      "type": "VEC3"
    },
    {
      "bufferView": 2,
      "byteOffset": 25524,
      "componentType": 5126,
      "count": 2127,
      "max": [
        0.9999085664749146,
        0.9996801018714905,
        0.9993547201156616
      ],
      "min": [
        -0.9999085664749146,
        -0.9999875426292419,
        -0.9988659024238586
      ],
      "type": "VEC3"
    },
    {
      "bufferView": 3,
      "componentType": 5126,
      "count": 2127,
      "max": [
        0.9970775246620178,
        0.9895917773246765,
        0.9999675750732422,
        1.0
      ],
      "min": [
        -0.9986207485198975,
        -0.9986557960510254,
        -0.9978655576705933,
        1.0
      ],
      "type": "VEC4"
    },
    {
      "bufferView": 1,
      "componentType": 5126,
      "count": 2127,
      "max": [
        0.9345349669456482,
        0.998046875
      ],
      "min": [
        0.0019531244179233909,
        0.0019531244179233909
      ],
      "type": "VEC2"
    },
    {
      "bufferView": 0,
      "componentType": 5125,
      "count": 11208,
      "type": "SCALAR"
    },
    {
      "bufferView": 2,
      "byteOffset": 51048,
      "componentType": 5126,
      "count": 1061,
      "max": [
        0.015070999972522259,
        0.20071199536323547,
        -0.37961098551750183
      ],
      "min": [
        -0.015003999695181847,
        -0.2642599940299988,
        -0.7661330103874207
      ],
      "type": "VEC3"
    },
    {
      "bufferView": 2,
      "byteOffset": 63780,
      "componentType": 5126,
      "count": 1061,
      "max": [
        0.9999574422836304,
        0.9933995604515076,
        0.6193293929100037
      ],
      "min": [
        -0.9999666810035706,
        -0.97137051820755,
        -0.9123790860176086
      ],
      "type": "VEC3"
    },
    {
      "bufferView": 3,
      "byteOffset": 34032,
      "componentType": 5126,
      "count": 1061,
      "max": [
        0.9998747110366821,
        0.9963468313217163,
        0.9987061619758606,
        1.0
      ],
      "min": [
        -0.9738604426383972,
        -0.9975977540016174,
        -0.9156026244163513,
        -1.0
      ],
      "type": "VEC4"
    },
    {
      "bufferView": 1,
      "byteOffset": 17016,
      "componentType": 5126,
      "count": 1061,
      "max": [
        0.9812871217727661,
        0.998046875
      ],
      "min": [
        0.0019531017169356346,
        0.0019531017169356346
      ],
      "type": "VEC2"
    },
    {
      "bufferView": 0,
      "byteOffset": 44832,
      "componentType": 5125,
      "count": 5031,
      "type": "SCALAR"
    },
    {
      "bufferView": 2,
      "byteOffset": 76512,
      "componentType": 5126,
      "count": 1457,
      "max": [
        0.267826110124588,
        0.12235573679208755,
        0.9261125922203064
      ],
      "min": [
        -0.2259802520275116,
        -0.210321843624115,
        0.6025059223175049
      ],
      "type": "VEC3"
    },
    {
      "bufferView": 2,
      "byteOffset": 93996,
      "componentType": 5126,
      "count": 1457,
      "max": [
        0.925437331199646,
        0.9973670840263367,
        0.980225682258606
      ],
      "min": [
        -0.9887608885765076,
        -0.9987143874168396,
        -0.9999937415122986
      ],
      "type": "VEC3"
    },
    {
      "bufferView": 3,
      "byteOffset": 51008,
      "componentType": 5126,
      "count": 1457,
      "max": [
        0.9954689145088196,
        0.9004591107368469,
        0.726979672908783,
        1.0
      ],
      "min": [
        -0.9999719858169556,
        -0.9946961402893066,
        -0.9997622966766357,
        1.0
      ],
      "type": "VEC4"
    },
    {
      "bufferView": 1,
      "byteOffset": 25504,
      "componentType": 5126,
      "count": 1457,
      "max": [
        0.9180133938789368,
        0.998046875
      ],
      "min": [
        0.0019531173165887594,
        0.001953125
      ],
      "type": "VEC2"
    },
    {
      "bufferView": 0,
      "byteOffset": 64956,
      "componentType": 5125,
      "count": 7524,
      "type": "SCALAR"
    },
    {
      "bufferView": 2,
      "byteOffset": 111480,
      "componentType": 5126,
      "count": 922,
      "max": [
        0.09718263894319534,
        0.8587471842765808,
        0.4948387145996094
      ],
      "min": [
        -0.09765508770942688,
        0.44511517882347107,
        0.14140309393405914
      ],
      "type": "VEC3"
    },
    {
      "bufferView": 2,
      "byteOffset": 122544,
      "componentType": 5126,
      "count": 922,
      "max": [
        0.9942663311958313,
        0.9943448305130005,
        0.9908477663993835
      ],
      "min": [
        -0.9990972280502319,
        -0.9990419745445251,
        -0.9988352656364441
      ],
      "type": "VEC3"
    },
    {
      "bufferView": 3,
      "byteOffset": 74320,
      "componentType": 5126,
      "count": 922,
      "max": [
        0.9952703714370728,
        0.7970543503761292,
        0.9310455322265625,
        1.0
      ],
      "min": [
        -0.998095691204071,
        -0.9999741315841675,
        -0.7469100952148438,
        1.0
      ],
      "type": "VEC4"
    },
    {
      "bufferView": 1,
      "byteOffset": 37160,
      "componentType": 5126,
      "count": 922,
      "max": [
        0.995923638343811,
        0.998046875
      ],
      "min": [
        0.00195311161223799,
        0.0019531113794073462
      ],
      "type": "VEC2"
    },
    {
      "bufferView": 0,
      "byteOffset": 95052,
      "componentType": 5125,
      "count": 5028,
      "type": "SCALAR"
    },
    {
      "bufferView": 2,
      "byteOffset": 133608,
      "componentType": 5126,
      "count": 803,
      "max": [
        0.05460219457745552,
        0.7012584209442139,
        0.3511018455028534
      ],
      "min": [
        -0.16301126778125763,
        0.48700574040412903,
        0.0333666130900383
      ],
      "type": "VEC3"
    },
    {
      "bufferView": 2,
      "byteOffset": 143244,
      "componentType": 5126,
      "count": 803,
      "max": [
        0.999606728553772,
        0.9917874336242676,
        0.9954084157943726
      ],
      "min": [
        -0.9932297468185425,
        -0.9998655319213867,
        -0.9998775720596313
      ],
      "type": "VEC3"
    },
    {
      "bufferView": 3,
      "byteOffset": 89072,
      "componentType": 5126,
      "count": 803,
      "max": [
        0.9979773759841919,
        0.9238238334655762,
        0.9674423336982727,
        1.0
      ],
      "min": [
        -0.9996833205223083,
        -0.655683696269989,
        -0.9994378089904785,
        1.0
      ],
      "type": "VEC4"
    },
    {
      "bufferView": 1,
      "byteOffset": 44536,
      "componentType": 5126,
      "count": 803,
      "max": [
        0.998046875,
        0.9954445958137512
      ],
      "min": [
        0.001953129656612873,
        0.001953129656612873
      ],
      "type": "VEC2"
    },
    {
      "bufferView": 0,
      "byteOffset": 115164,
      "componentType": 5125,
      "count": 4284,
      "type": "SCALAR"
    },
    {
      "bufferView": 2,
      "byteOffset": 152880,
      "componentType": 5126,
      "count": 768,
      "max": [
        0.33239737153053284,
        0.3115980923175812,
        0.6804819703102112
      ],
      "min": [
        -0.33239737153053284,
        -0.10040771216154099,
        0.48665550351142883
      ],
      "type": "VEC3"
    },
    {
      "bufferView": 2,
      "byteOffset": 162096,
      "componentType": 5126,
      "count": 768,
      "max": [
        0.9999905824661255,
        0.9638754725456238,
        0.9999984502792358
      ],
      "min": [
        -0.9999905824661255,
        -0.9776839017868042,
        -0.9989382028579712
      ],
      "type": "VEC3"
    },
    {
      "bufferView": 3,
      "byteOffset": 101920,
      "componentType": 5126,
      "count": 768,
      "max": [
        0.4896392524242401,
        0.9113599061965942,
        0.9840461611747742,
        1.0
      ],
      "min": [
        -0.9677888751029968,
        -0.9988282918930054,
        -0.9980920553207397,
        -1.0
      ],
      "type": "VEC4"
    },
    {
      "bufferView": 1,
      "byteOffset": 50960,
      "componentType": 5126,
      "count": 768,
      "max": [
        0.9938420653343201,
        0.9980468153953552
      ],
      "min": [
        0.0019531013676896691,
        0.001953133614733815
      ],
      "type": "VEC2"
    },
    {
      "bufferView": 0,
      "byteOffset": 132300,
      "componentType": 5125,
      "count": 4236,
      "type": "SCALAR"
    },
    {
      "bufferView": 2,
      "byteOffset": 171312,
      "componentType": 5126,
      "count": 190,
      "max": [
        0.2968284785747528,
        0.30114635825157166,
        0.659420371055603
      ],
      "min": [
        -0.2968284785747528,
        0.08284718543291092,
        0.467483788728714
      ],
      "type": "VEC3"
    },
    {
      "bufferView": 2,
      "byteOffset": 173592,
      "componentType": 5126,
      "count": 190,
      "max": [
        0.9982375502586365,
        0.6536806225776672,
        0.9937889575958252
      ],
      "min": [
        -0.9982375502586365,
        -0.9954937696456909,
        -0.7562239170074463
      ],
      "type": "VEC3"
    },
    {
      "bufferView": 3,
      "byteOffset": 114208,
      "componentType": 5126,
      "count": 190,
      "max": [
        0.7564926743507385,
        0.35885825753211975,
        0.6830987334251404,
        1.0
      ],
      "min": [
        -0.8489127159118652,
        -0.9960291385650635,
        -0.9950348734855652,
        1.0
      ],
      "type": "VEC4"
    },
    {
      "bufferView": 1,
      "byteOffset": 57104,
      "componentType": 5126,
      "count": 190,
      "max": [
        0.8607933521270752,
        0.9980469942092896
      ],
      "min": [
        0.0019531239522621036,
        0.0019531239522621036
      ],
      "type": "VEC2"
    },
    {
      "bufferView": 0,
      "byteOffset": 149244,
      "componentType": 5125,
      "count": 912,
      "type": "SCALAR"
    },
    {
      "bufferView": 2,
      "byteOffset": 175872,
      "componentType": 5126,
      "count": 5090,
      "max": [
        0.42515453696250916,
        0.49505946040153503,
        0.7033352851867676
      ],
      "min": [
        -0.42515453696250916,
        0.14426210522651672,
        0.4230121374130249
      ],
      "type": "VEC3"
    },
    {
      "bufferView": 2,
      "byteOffset": 236952,
      "componentType": 5126,
      "count": 5090,
      "max": [
        0.9786937832832336,
        0.9979681968688965,
        0.9768117666244507
      ],
      "min": [
        -0.9786937832832336,
        -0.999950647354126,
        -0.9813045859336853
      ],
      "type": "VEC3"
    },
    {
      "bufferView": 3,
      "byteOffset": 117248,
      "componentType": 5126,
      "count": 5090,
      "max": [
        0.9976251721382141,
        0.9518360495567322,
        0.9976481199264526,
        1.0
      ],
      "min": [
        -0.9252986907958984,
        -0.9504508376121521,
        -0.997909665107727,
        1.0
      ],
      "type": "VEC4"
    },
    {
      "bufferView": 1,
      "byteOffset": 58624,
      "componentType": 5126,
      "count": 5090,
      "max": [
        0.9961796402931213,
        0.998046875
      ],
      "min": [
        0.00195313454605639,
        0.00195313454605639
      ],
      "type": "VEC2"
    },
    {
      "bufferView": 0,
      "byteOffset": 152892,
      "componentType": 5125,
      "count": 29616,
      "type": "SCALAR"
    }
  ],
  "asset": {
    "extras": {
      "author": "dreamventure.nvk (https://sketchfab.com/dreamventure.nvk)",
      "license": "CC-BY-4.0 (http://creativecommons.org/licenses/by/4.0/)",
      "source": "https://sketchfab.com/3d-models/angry-bird-5b58aa4d590743169c95ea81a9a8e0a6",
      "title": "Angry Bird"
    },
    "generator": "Sketchfab-10.72.0",
    "version": "2.0"
  },
  "bufferViews": [
    {
      "buffer": 0,
      "byteLength": 271356,
      "name": "floatBufferViews",
      "target": 34963
    },
    {
      "buffer": 0,
      "byteLength": 99344,
      "byteOffset": 271356,
      "byteStride": 8,
      "name": "floatBufferViews",
      "target": 34962
    },
    {
      "buffer": 0,
      "byteLength": 298032,
      "byteOffset": 370700,
      "byteStride": 12,
      "name": "floatBufferViews",
      "target": 34962
    },
    {
      "buffer": 0,
      "byteLength": 198688,
      "byteOffset": 668732,
      "byteStride": 16,
      "name": "floatBufferViews",
      "target": 34962
    }
  ],
  "buffers": [
    {
      "byteLength": 867420,
      "uri": "scene.bin"
    }
  ],
  "images": [
    {
      "uri": "textures/Corpo1_baseColor.jpeg"
    },
    {
      "uri": "textures/Corpo1_metallicRoughness.png"
    },
    {
      "uri": "textures/Corpo1_normal.png"
    },
    {
      "uri": "textures/Coda1_baseColor.jpeg"
    },
    {
      "uri": "textures/Coda1_metallicRoughness.png"
    },
    {
      "uri": "textures/Coda1_normal.png"
    },
    {
      "uri": "textures/Bocca1_baseColor.jpeg"
    },
    {
      "uri": "textures/Bocca1_metallicRoughness.png"
    },
    {
      "uri": "textures/Bocca1_normal.png"
    },
    {
      "uri": "textures/Capelli_2_baseColor.jpeg"
    },
    {
      "uri": "textures/Capelli_2_metallicRoughness.png"
    },
    {
      "uri": "textures/Capelli_2_normal.png"
    },
    {
      "uri": "textures/Capello_3_baseColor.jpeg"
    },
    {
      "uri": "textures/Capello_3_metallicRoughness.png"
    },
    {
      "uri": "textures/Capello_3_normal.png"
    },
    {
      "uri": "textures/Occhi1_baseColor.jpeg"
    },
    {
      "uri": "textures/Occhi1_metallicRoughness.png"
    },
    {
      "uri": "textures/Occhi1_normal.png"
    },
    {
      "uri": "textures/Extract2_baseColor.jpeg"
    },
    {
      "uri": "textures/Extract2_metallicRoughness.png"
    },
    {
      "uri": "textures/Extract2_normal.png"
    },
    {
      "uri": "textures/Sopracciglie1_baseColor.jpeg"
    },
    {
      "uri": "textures/Sopracciglie1_metallicRoughness.png"
    },
    {
      "uri": "textures/Sopracciglie1_normal.png"
    }
  ],
  "materials": [
    {
      "doubleSided": true,
      "name": "Corpo1",
      "normalTexture": {
        "index": 2
      },
      "pbrMetallicRoughness": {
        "baseColorTexture": {
          "index": 0
        },
        "metallicRoughnessTexture": {
          "index": 1
        }
      }
    },
    {
      "doubleSided": true,
      "name": "Coda1",
      "normalTexture": {
        "index": 5
      },
      "pbrMetallicRoughness": {
        "baseColorTexture": {
          "index": 3
        },
        "metallicRoughnessTexture": {
          "index": 4
        }
      }
    },
    {
      "doubleSided": true,
      "name": "Bocca1",
      "normalTexture": {
        "index": 8
      },
      "pbrMetallicRoughness": {
        "baseColorTexture": {
          "index": 6
        },
        "metallicRoughnessTexture": {
          "index": 7
        }
      }
    },
    {
      "doubleSided": true,
      "name": "Capelli_2",
      "normalTexture": {
        "index": 11
      },
      "pbrMetallicRoughness": {
        "baseColorTexture": {
          "index": 9
        },
        "metallicRoughnessTexture": {
          "index": 10
        }
      }
    },
    {
      "doubleSided": true,
      "name": "Capello_3",
      "normalTexture": {
        "index": 14
      },
      "pbrMetallicRoughness": {
        "baseColorTexture": {
          "index": 12
        },
        "metallicRoughnessTexture": {
          "index": 13
        }
      }
    },
    {
      "doubleSided": true,
      "name": "Occhi1",
      "normalTexture": {
        "index": 17
      },
      "pbrMetallicRoughness": {
        "baseColorTexture": {
          "index": 15
        },
        "metallicFactor": 0.7495713477919851,
        "metallicRoughnessTexture": {
          "index": 16
        }
      }
    },
    {
      "doubleSided": true,
      "name": "Extract2",
      "normalTexture": {
        "index": 20
      },
      "pbrMetallicRoughness": {
        "baseColorTexture": {
          "index": 18
        },
        "metallicRoughnessTexture": {
          "index": 19
        }
      }
    },
    {
      "doubleSided": true,
      "name": "Sopracciglie1",
      "normalTexture": {
        "index": 23
      },
      "pbrMetallicRoughness": {
        "baseColorTexture": {
          "index": 21
        },
        "metallicRoughnessTexture": {
          "index": 22
        }
      }
    }
  ],
  "meshes": [
    {
      "name": "Corpo1_Corpo1_0",
      "primitives": [
        {
          "attributes": {
            "NORMAL": 1,
            "POSITION": 0,
            "TANGENT": 2,
            "TEXCOORD_0": 3
          },
          "indices": 4,
          "material": 0,
          "mode": 4
        }
      ]
    },
    {
      "name": "Coda1_Coda1_0",
      "primitives": [
        {
          "attributes": {
            "NORMAL": 6,
            "POSITION": 5,
            "TANGENT": 7,
            "TEXCOORD_0": 8
          },
          "indices": 9,
          "material": 1,
          "mode": 4
        }
      ]
    },
    {
      "name": "Bocca1_Bocca1_0",
      "primitives": [
        {
          "attributes": {
            "NORMAL": 11,
            "POSITION": 10,
            "TANGENT": 12,
            "TEXCOORD_0": 13
          },
          "indices": 14,
          "material": 2,
          "mode": 4
        }
      ]
    },
    {
      "name": "Capelli_2_Capelli_2_0",
      "primitives": [
        {
          "attributes": {
            "NORMAL": 16,
            "POSITION": 15,
            "TANGENT": 17,
            "TEXCOORD_0": 18
          },
          "indices": 19,
          "material": 3,
          "mode": 4
        }
      ]
    },
    {
      "name": "Capello_3_Capello_3_0",
      "primitives": [
        {
          "attributes": {
            "NORMAL": 21,
            "POSITION": 20,
            "TANGENT": 22,
            "TEXCOORD_0": 23
          },
          "indices": 24,
          "material": 4,
          "mode": 4
        }
      ]
    },
    {
      "name": "Occhi1_Occhi1_0",
      "primitives": [
        {
          "attributes": {
            "NORMAL": 26,
            "POSITION": 25,
            "TANGENT": 27,
            "TEXCOORD_0": 28
          },
          "indices": 29,
          "material": 5,
          "mode": 4
        }
      ]
    },
    {
      "name": "Extract2_Extract2_0",
      "primitives": [
        {
          "attributes": {
            "NORMAL": 31,
            "POSITION": 30,
            "TANGENT": 32,
            "TEXCOORD_0": 33
          },
          "indices": 34,
          "material": 6,
          "mode": 4
        }
      ]
    },
    {
      "name": "Sopracciglie1_Sopracciglie1_0",
      "primitives": [
        {
          "attributes": {
            "NORMAL": 36,
            "POSITION": 35,
            "TANGENT": 37,
            "TEXCOORD_0": 38
          },
          "indices": 39,
          "material": 7,
          "mode": 4
        }
      ]
    }
  ],
  "nodes": [
    {
      "children": [
        1
      ],
      "matrix": [
        0.3385799527168274,
        0.0,
        0.0,
        0.0,
        0.0,
        7.517985183654372e-17,
        -0.3385799527168274,
        0.0,
        0.0,
        0.3385799527168274,
        7.517985183654372e-17,
        0.0,
        0.0,
        0.0,
        0.0,
        1.0
      ],
      "name": "Sketchfab_model"
    },
    {
      "children": [
        2
      ],
      "matrix": [
        1.0,
        0.0,
        0.0,
        0.0,
        0.0,
        0.0,
        1.0,
        0.0,
        0.0,
        -1.0,
        0.0,
        0.0,
        0.0,
        0.0,
        0.0,
        1.0
      ],
      "name": "Angry Birds.fbx"
    },
    {
      "children": [
        3,
        5,
        7,
        9,
        11,
        13,
        15,
        17
      ],
      "name": "RootNode"
    },
    {
      "children": [
        4
      ],
      "name": "Corpo1"
    },
    {
      "mesh": 0,
      "name": "Corpo1_Corpo1_0"
    },
    {
      "children": [
        6
      ],
      "name": "Coda1"
    },
    {
      "mesh": 1,
      "name": "Coda1_Coda1_0"
    },
    {
      "children": [
        8
      ],
      "name": "Bocca1"
    },
    {
      "mesh": 2,
      "name": "Bocca1_Bocca1_0"
    },
    {
      "children": [
        10
      ],
      "name": "Capelli_2"
    },
    {
      "mesh": 3,
      "name": "Capelli_2_Capelli_2_0"
    },
    {
      "children": [
        12
      ],
      "name": "Capello_3"
    },
    {
      "mesh": 4,
      "name": "Capello_3_Capello_3_0"
    },
    {
      "children": [
        14
      ],
      "name": "Occhi1"
    },
    {
      "mesh": 5,
      "name": "Occhi1_Occhi1_0"
    },
    {
      "children": [
        16
      ],
      "name": "Extract2"
    },
    {
      "mesh": 6,
      "name": "Extract2_Extract2_0"
    },
    {
      "children": [
        18
      ],
      "name": "Sopracciglie1"
    },
    {
      "mesh": 7,
      "name": "Sopracciglie1_Sopracciglie1_0"
    }
  ],
  "samplers": [
    {
      "magFilter": 9729,
      "minFilter": 9987,
      "wrapS": 10497,
      "wrapT": 10497
    }
  ],
  "scene": 0,
  "scenes": [
    {
      "name": "Sketchfab_Scene",
      "nodes": [
        0
      ]
    }
  ],
  "textures": [
    {
      "sampler": 0,
      "source": 0
    },
    {
      "sampler": 0,
      "source": 1
    },
    {
      "sampler": 0,
      "source": 2
    },
    {
      "sampler": 0,
      "source": 3
    },
    {
      "sampler": 0,
      "source": 4
    },
    {
      "sampler": 0,
      "source": 5
    },
    {
      "sampler": 0,
      "source": 6
    },
    {
      "sampler": 0,
      "source": 7
    },
    {
      "sampler": 0,
      "source": 8
    },
    {
      "sampler": 0,
      "source": 9
    },
    {
      "sampler": 0,
      "source": 10
    },
    {
      "sampler": 0,
      "source": 11
    },
    {
      "sampler": 0,
      "source": 12
    },
    {
      "sampler": 0,
      "source": 13
    },
    {
      "sampler": 0,
      "source": 14
    },
    {
      "sampler": 0,
      "source": 15
    },
    {
      "sampler": 0,
      "source": 16
    },
    {
      "sampler": 0,
      "source": 17
    },
    {
      "sampler": 0,
      "source": 18
    },
    {
      "sampler": 0,
      "source": 19
    },
    {
      "sampler": 0,
      "source": 20
    },
    {
      "sampler": 0,
      "source": 21
    },
    {
      "sampler": 0,
      "source": 22
    },
    {
      "sampler": 0,
      "source": 23
    }
  ]
}
